<svg xmlns="http://www.w3.org/2000/svg" fill="#38a169" width="512" height="512"><path d="M352 16H192a40.045 40.045 0 00-40 40v24a80 80 0 000 160v152a40.045 40.045 0 0040 40h111.817l.183.319V488a8 8 0 008 8h120a8 8 0 008-8v-54.3l15.519-42.674a8.021 8.021 0 00.481-2.735V288a24 24 0 00-32-22.629V264a23.982 23.982 0 00-32-22.62V56a40.045 40.045 0 00-40-40zM192 32h160a24.039 24.039 0 0122.624 16H169.376A24.039 24.039 0 01192 32zm-24 32h208v169.381a23.944 23.944 0 00-16-.01V120a8 8 0 00-8-8H215.956A80.135 80.135 0 00168 81.61zm152 80h-32a8 8 0 00-8 8v32a8 8 0 008 8h25.376a23.889 23.889 0 00-1.376 8v8h-24a8 8 0 00-8 8v32a8 8 0 008 8h24v36.991a37.509 37.509 0 00-8 2.4V280a8 8 0 00-8-8h-48a8 8 0 00-8 8v40h-40v-96.044A80.454 80.454 0 00225.3 192H256a8 8 0 008-8v-32a8 8 0 00-8-8h-25.61a79.256 79.256 0 00-5.09-16H344v49.376a23.944 23.944 0 00-16 0V152a8 8 0 00-8-8zm-8 16v16h-16v-16zm0 64v16h-16v-16zm-24 64v21.131A46.171 46.171 0 00282.945 320H256v-32zm-56-112v-16h16v16zm-80 48a64 64 0 1164-64 64.072 64.072 0 01-64 64zm16 14.39a79.277 79.277 0 0016-5.09V328a8 8 0 008 8h88.122a78.298 78.298 0 00-.122 4.286V384H168zM192 416a24.039 24.039 0 01-22.624-16H285.49l9.163 16zm208-160a8.009 8.009 0 018 8v72a8 8 0 0016 0v-48a8 8 0 0116 0v98.877l-15.519 42.675a8.02 8.02 0 00-.481 2.734V480H320v-49.81a7.99 7.99 0 00-1.058-3.975L296 386.157v-45.871c0-8.273 1.742-25.968 16-30.766V336a8 8 0 0016 0v-32a8.008 8.008 0 00-.225-1.857 8 8 0 00.225-1.857V200a8 8 0 0116 0v109.048a8 8 0 0016 0V256a8 8 0 0116 0v64a8 8 0 0016 0v-56a8.009 8.009 0 018-8z"/><path d="M256 208h-32a8 8 0 00-8 8v32a8 8 0 008 8h32a8 8 0 008-8v-32a8 8 0 00-8-8zm-8 32h-16v-16h16zm-69.657-109.657L136 172.687l-10.343-10.344a8 8 0 00-11.314 11.314l16 16a8 8 0 0011.314 0l48-48a8 8 0 00-11.314-11.314zM256 96h96a8 8 0 000-16h-96a8 8 0 000 16z"/><circle cx="224" cy="88" r="8"/><path d="M224 352h-32a8 8 0 000 16h32a8 8 0 000-16z"/></svg>