<svg xmlns="http://www.w3.org/2000/svg" fill="#38a169" stroke="#48bb78" viewBox="0 0 505 505" width="512" height="512"><path d="M482.628 91.892C494.964 91.892 505 81.856 505 69.52V42.576c0-12.336-10.036-22.372-22.372-22.372h-57.081c-4.143 0-7.5 3.358-7.5 7.5s3.357 7.5 7.5 7.5h57.081c4.065 0 7.372 3.307 7.372 7.372V69.52c0 4.065-3.307 7.372-7.372 7.372H22.372c-4.065 0-7.372-3.307-7.372-7.372V42.576c0-4.065 3.307-7.372 7.372-7.372h373.173c4.143 0 7.5-3.358 7.5-7.5s-3.357-7.5-7.5-7.5H22.372C10.036 20.204 0 30.24 0 42.576V69.52c0 12.336 10.036 22.372 22.372 22.372h.761v111.407H7.5a7.5 7.5 0 000 15h15.633v37.536C10.21 256.839 0 267.668 0 280.844s10.21 24.005 23.133 25.009v171.443a7.5 7.5 0 007.5 7.5h443.73a7.5 7.5 0 007.5-7.5V305.853C494.788 304.851 505 294.021 505 280.844s-10.212-24.007-23.137-25.009v-37.536H497.5c4.143 0 7.5-3.358 7.5-7.5s-3.357-7.5-7.5-7.5h-15.637V91.892h.765zM121.95 203.299H66.579v-68.402h55.371v68.402zm99.421 15v37.452h-52.504v-37.452h52.504zm41.189 0v37.452h-26.189v-37.452h26.189zm70.371-15H277.56v-68.402h55.371v68.402zm90.951 15v37.452h-52.504v-37.452h52.504zm-67.504 37.452h-8.447v-37.452h8.447v37.452zm-23.447 0h-29.057v-37.452h29.057v37.452zm-44.056-37.452v37.452H277.56v-37.452h11.315zm-135.008 37.452H136.95v-37.452h16.917v37.452zm-31.917 0h-20.587v-37.452h20.587v37.452zm-35.587-37.452v37.452H66.579v-37.452h19.784zm-34.784 37.452H38.133v-37.452h13.446v37.452zm70.371 214.045H66.579V348.941h55.371v120.855zm210.981 0H277.56V348.941h55.371v120.855zM490 280.844c0 5.565-4.527 10.093-10.093 10.093H108.849a7.5 7.5 0 000 15h358.015v163.859H347.931V341.441a7.5 7.5 0 00-7.5-7.5H270.06a7.5 7.5 0 00-7.5 7.5v128.355H136.95V341.441a7.5 7.5 0 00-7.5-7.5H59.079a7.5 7.5 0 00-7.5 7.5v128.355H38.133V305.937h40.714a7.5 7.5 0 000-15H25.093c-5.565 0-10.093-4.528-10.093-10.093s4.527-10.093 10.093-10.093h454.815c5.565 0 10.092 4.528 10.092 10.093zm-23.136-25.093h-27.981v-37.452h27.981v37.452zm-118.933-52.452v-75.902a7.5 7.5 0 00-7.5-7.5H270.06a7.5 7.5 0 00-7.5 7.5v75.902H136.95v-75.902a7.5 7.5 0 00-7.5-7.5H59.079a7.5 7.5 0 00-7.5 7.5v75.902H38.133V91.896h428.73v111.403H347.931z"/><path d="M234.94 119.897h-70.371a7.5 7.5 0 00-7.5 7.5v56.036a7.5 7.5 0 007.5 7.5h70.371a7.5 7.5 0 007.5-7.5v-56.036a7.5 7.5 0 00-7.5-7.5zm-7.5 56.035h-55.371v-41.036h55.371v41.036zm218.481-56.035H375.55a7.5 7.5 0 00-7.5 7.5v56.036a7.5 7.5 0 007.5 7.5h70.371a7.5 7.5 0 007.5-7.5v-56.036a7.5 7.5 0 00-7.5-7.5zm-7.5 56.035H383.05v-41.036h55.371v41.036zM164.569 404.977h70.371a7.5 7.5 0 007.5-7.5v-56.036a7.5 7.5 0 00-7.5-7.5h-70.371a7.5 7.5 0 00-7.5 7.5v56.036a7.5 7.5 0 007.5 7.5zm7.5-56.036h55.371v41.036h-55.371v-41.036zm203.481 56.036h70.371a7.5 7.5 0 007.5-7.5v-56.036a7.5 7.5 0 00-7.5-7.5H375.55a7.5 7.5 0 00-7.5 7.5v56.036a7.5 7.5 0 007.5 7.5zm7.5-56.036h55.371v41.036H383.05v-41.036zM70.643 420.869c1.22 2.89 4.151 4.774 7.298 4.621 3.126-.152 5.903-2.313 6.806-5.31 2.009-6.667-5.731-12.301-11.455-8.328-2.879 1.999-3.942 5.78-2.649 9.017zm211.96 0c1.096 2.73 3.84 4.56 6.765 4.627 3.398.077 6.469-2.227 7.384-5.492.801-2.858-.241-6.062-2.581-7.891-2.627-2.054-6.346-2.116-9.051-.176-2.776 1.99-3.843 5.784-2.517 8.932z"/></svg>