<svg xmlns="http://www.w3.org/2000/svg" width="512" fill="#38a169" height="512" viewBox="0 0 128 128"><path d="M122.041 58.128L109.82 55.65 97.388 34.528a1.751 1.751 0 00-1.508-.862h-5.967v-6.112a1.749 1.749 0 00-1.75-1.75h-6.1a1.75 1.75 0 00-1.75 1.75v6.112h-4.577v-6.112a1.749 1.749 0 00-1.75-1.75H6.307a1.749 1.749 0 00-1.75 1.75V93.06a1.75 1.75 0 001.75 1.75h10.506a15.216 15.216 0 0026.093 0h42.188a15.216 15.216 0 0026.093 0h10.506a1.75 1.75 0 001.75-1.75V59.844a1.751 1.751 0 00-1.402-1.716zm-2.1 12.842h-4.811v-3.241h4.813zm-14.3-15.51H83.813V44.618h15.452zM83.813 29.3h2.6v4.362h-2.6zm11.066 7.862l2.326 3.952H82.063a1.75 1.75 0 00-1.75 1.75V57.21a1.75 1.75 0 001.75 1.75h26.471l11.409 2.314v2.955h-6.563a1.75 1.75 0 00-1.75 1.75v6.741a1.749 1.749 0 001.75 1.75h6.563v4.647h-8.723a15.217 15.217 0 00-26.159 0h-9.325V37.166zM72.236 29.3v49.817h-29.3a15.217 15.217 0 00-26.159 0h-8.72V29.3zM8.057 91.31v-8.693h7.175a15.1 15.1 0 00.014 8.693zm21.8 7.386a11.76 11.76 0 1111.76-11.759A11.772 11.772 0 0129.859 98.7zm14.616-7.386a15.1 15.1 0 00.014-8.693h39.026a15.1 15.1 0 00.014 8.693zm53.668 7.39A11.76 11.76 0 11109.9 86.937 11.772 11.772 0 0198.141 98.7zm21.8-7.386h-7.189a15.1 15.1 0 00.014-8.693h7.175z"/><path d="M29.859 80.158a6.778 6.778 0 106.779 6.779 6.786 6.786 0 00-6.779-6.779zm0 10.056a3.278 3.278 0 113.279-3.277 3.281 3.281 0 01-3.279 3.277zm68.282-10.056a6.778 6.778 0 106.778 6.779 6.787 6.787 0 00-6.778-6.779zm0 10.056a3.278 3.278 0 113.278-3.277 3.282 3.282 0 01-3.278 3.277zM82.063 65.75h4.006a1.75 1.75 0 100-3.5h-4.006a1.75 1.75 0 100 3.5zM46.678 54.4a1.751 1.751 0 00-1.75 1.75v7h-9.563v-7a1.75 1.75 0 00-3.5 0v8.75a1.749 1.749 0 001.75 1.75h13.063a1.749 1.749 0 001.75-1.75v-8.75a1.75 1.75 0 00-1.75-1.75z"/><path d="M30.526 54.5l9.62-9.62 9.621 9.62a1.75 1.75 0 002.475-2.475l-3.814-3.813v-5.524a1.75 1.75 0 00-3.5 0v2.028l-3.544-3.545a1.751 1.751 0 00-2.475 0L28.051 52.029a1.75 1.75 0 002.475 2.471z"/></svg>