<svg fill="#38a169" xmlns="http://www.w3.org/2000/svg" viewBox="0 0 480 480"><path d="M479.808 151.048c-.032-.264.064-.52.008-.784l-32-144A8 8 0 00440 0H40a8 8 0 00-7.816 6.264l-32 144c-.056.264 0 .52 0 .8A7.664 7.664 0 000 152v320a8 8 0 008 8h464a8 8 0 008-8V152a7.715 7.715 0 00-.192-.952zM433.6 16l28.424 128H295.2L280.936 16H433.6zm-218.4 0h49.6l14.232 128h-78.096L215.2 16zM200 160h80v128h-80V160zM46.4 16h152.664L184.84 144H17.976L46.4 16zM464 464H16V160h168v136a8 8 0 008 8h96a8 8 0 008-8V160h168v304z"/><path d="M72 400H40a8 8 0 00-8 8v32a8 8 0 008 8h32a8 8 0 008-8v-32a8 8 0 00-8-8zm-8 32H48v-16h16v16zm88 0h-16v-36.688l10.344 10.344a8 8 0 0011.312-11.312l-24-24a7.911 7.911 0 00-2.608-1.736 8 8 0 00-6.112 0 7.911 7.911 0 00-2.608 1.736l-24 24a8 8 0 0011.312 11.312L120 395.312V432h-16a8 8 0 000 16h48a8 8 0 000-16zm232-32h16v16h-16zm32 0h32v16h-32zm-32 32h64v16h-64z"/></svg>